<?xml version="1.0" encoding="UTF-8"?>
<svg width="18px" height="23px" viewBox="0 0 18 23" version="1.1" xmlns="http://www.w3.org/2000/svg" xmlns:xlink="http://www.w3.org/1999/xlink">
    <!-- Generator: sketchtool 42 (36781) - http://www.bohemiancoding.com/sketch -->
    <title>24930606-294B-4AE2-A217-C21943E538B5</title>
    <desc>Created with sketchtool.</desc>
    <defs></defs>
    <g id="Page-1" stroke="none" stroke-width="1" fill="none" fill-rule="evenodd">
        <g id="Paquetes" transform="translate(-564.000000, -607.000000)" fill="#E77D16">
            <g id="Group-2" transform="translate(67.000000, 436.000000)">
                <g id="Group" transform="translate(493.000000, 29.000000)">
                    <g id="Page-1" transform="translate(4.000000, 142.000000)">
                        <path d="M17.03,9.85516176 C16.8683333,9.61975 16.715,9.39786765 16.6236667,9.24058824 C16.2786667,8.64360294 16.25,8.56817647 16.3853333,7.87986765 C16.5103333,7.24702941 16.3386667,6.65511765 16.1563333,6.02870588 C16.1016667,5.83997059 16.0456667,5.64683824 15.996,5.44626471 L15.9713333,5.34310294 C14.974,1.10602941 11.263,0.167764706 8.32666667,0.126838235 C8.27333333,0.125485294 8.22133333,0.125485294 8.16933333,0.125485294 C1.77466667,0.125485294 0.143333333,5.63364706 0.0766666667,7.58120588 C0.0143333333,9.39786765 0.971333333,11.6982059 1.63666667,12.6811176 C2.27066667,13.6166765 2.754,15.5219559 2.81133333,17.3122353 C2.86733333,19.0548235 0.759,22.5349265 0.738333333,22.5694265 C0.665333333,22.6881471 0.701666667,22.8454265 0.819,22.9181471 C0.859333333,22.9445294 0.905,22.9563676 0.950666667,22.9563676 C1.034,22.9563676 1.116,22.9140882 1.164,22.8362941 C1.254,22.6881471 3.37366667,19.1894412 3.31133333,17.2949853 C3.25133333,15.4174412 2.73166667,13.4012206 2.04833333,12.3932794 C1.42066667,11.4655 0.518333333,9.30147059 0.575666667,7.59845588 C0.578,7.52844118 1.01166667,0.632838235 8.16133333,0.632838235 C8.21366667,0.632838235 8.267,0.632838235 8.319,0.634191176 C12.3333333,0.689661765 14.7446667,2.31488235 15.4856667,5.46182353 L15.5116667,5.57039706 C15.5626667,5.77773529 15.621,5.97729412 15.677,6.17279412 C15.849,6.762 15.996,7.27070588 15.896,7.78211765 C15.7316667,8.61180882 15.7903333,8.80189706 16.1926667,9.49832353 C16.2943333,9.67285294 16.4516667,9.90386765 16.621,10.1470588 C16.9413333,10.6121324 17.427,11.3136324 17.4426667,11.5991029 C17.4623333,11.9268529 17.3696667,12.0350882 16.953,12.1764706 C16.6483333,12.2796324 16.4466667,12.4460441 16.3503333,12.6706324 C16.289,12.8147206 16.246,13.0525 16.3893333,13.3670588 C16.4363333,13.4698824 16.4453333,13.5625588 16.414,13.6403529 C16.3816667,13.7235588 16.302,13.7962794 16.1966667,13.8385588 L15.9036667,13.9576176 L16.0846667,14.2190735 C16.2733333,14.4940588 16.2733333,14.5759118 16.0833333,14.7687059 C15.6796667,15.1783088 15.8126667,15.5351471 15.884,15.7265882 L15.9036667,15.7820588 C15.9453333,15.9116029 16.0376667,16.7717353 15.638,16.9858382 C15.422,17.1008382 14.823,17.1786324 14.2956667,17.2472941 C13.5066667,17.3504559 12.7603333,17.4468529 12.4453333,17.7072941 C11.8673333,18.1828529 11.604,19.1261912 11.772,20.1091029 C11.8203333,20.3918676 11.7526667,20.6414853 11.659,20.9891912 C11.5533333,21.3788382 11.4233333,21.8611618 11.4113333,22.5731471 C11.41,22.7158824 11.5206667,22.8308824 11.659,22.8308824 L11.6626667,22.8308824 C11.7993333,22.8308824 11.91,22.7226471 11.9126667,22.5839706 C11.922,21.9352353 12.039,21.5070294 12.142,21.1265147 C12.2446667,20.7473529 12.3333333,20.4196029 12.2656667,20.0245441 C12.1276667,19.2185294 12.323,18.4656176 12.7616667,18.1033676 C12.966,17.93425 13.772,17.8300735 14.3606667,17.7532941 C15.013,17.6687353 15.5756667,17.5960147 15.8723333,17.4377206 C16.5756667,17.0622794 16.4713333,15.9024706 16.379,15.6247794 C16.371,15.6011029 16.362,15.5760735 16.353,15.5510441 C16.2943333,15.3951176 16.263,15.3092059 16.4373333,15.1306176 C16.7943333,14.7687059 16.7696667,14.4463676 16.634,14.1636029 C16.7446667,14.0722794 16.8293333,13.9589706 16.8803333,13.8294265 C16.9373333,13.6839853 16.978,13.4475588 16.845,13.1556618 C16.7916667,13.0393088 16.78,12.9442647 16.8113333,12.8728971 C16.858,12.7643235 17.0013333,12.6956618 17.1133333,12.6574412 C17.5363333,12.5147059 17.9856667,12.29925 17.9426667,11.5700147 C17.9193333,11.1708971 17.5493333,10.6067206 17.03,9.85516176 Z" id="Fill-1"></path>
                        <path d="M12.2446667,9.98335294 C12.2343333,9.93430882 12.2423333,9.91705882 12.3136667,9.82201471 C12.392,9.71885294 12.5103333,9.56427941 12.4843333,9.32379412 C12.47,9.18376471 12.427,9.01735294 12.3566667,8.84552941 C12.5676667,8.84823529 12.815,8.83775 13.0273333,8.79005882 C13.284,8.73188235 13.4386667,8.6595 13.5636667,8.60132353 C13.664,8.55363235 13.7446667,8.51811765 13.866,8.49038235 C14.211,8.41495588 14.9063333,8.03714706 15.03,7.46214706 C15.0743333,7.26022059 15.0626667,7.11613235 15.039,7.01161765 C15.2683333,6.82558824 15.4243333,6.47145588 15.2733333,5.94414706 C15.1953333,5.67220588 15.159,5.48177941 15.1303333,5.32720588 C15.1003333,5.16586765 15.0756667,5.03801471 15.0183333,4.91895588 C15.0076667,4.89527941 14.9896667,4.84894118 14.966,4.78298529 C14.9193333,4.65614706 14.849,4.47113235 14.7576667,4.26108824 C14.7446667,4.18836765 14.716,4.12748529 14.6733333,4.07472059 C14.4256667,3.54741176 14.0483333,2.92776471 13.5233333,2.63316176 C13.116,2.40316176 13.009,2.29222059 12.9233333,2.20258824 C12.8046667,2.07845588 12.7123333,1.99491176 12.4076667,1.86942647 L12.0833333,1.73616176 C11.2303333,1.38202941 10.4986667,1.08607353 10.172,1.0465 C9.95166667,1.02011765 9.67966667,1.03195588 9.418,1.04379412 C9.215,1.05292647 9.004,1.06239706 8.89466667,1.0465 C8.707,1.02011765 8.461,1.06476471 8.22266667,1.10839706 C8.05866667,1.13883824 7.87233333,1.17333824 7.784,1.16386765 C7.74866667,1.1615 7.70833333,1.15608824 7.66266667,1.15067647 C7.36833333,1.11651471 6.87633333,1.05698529 6.19266667,1.19295588 C5.62233333,1.30795588 5.392,1.49702941 5.23966667,1.62386765 C5.207,1.65025 5.16266667,1.68711765 5.14833333,1.69117647 C5.01566667,1.72804412 3.86833333,2.06627941 3.44,2.67036765 C3.07033333,2.94095588 2.38666667,3.95972059 2.379,3.97155882 C2.30066667,4.09061765 2.172,4.33888235 2.03633333,4.60169118 C1.905,4.85672059 1.75533333,5.14625 1.67833333,5.26125 C1.47133333,5.57039706 1.21733333,6.33277941 1.14466667,6.55872059 C1.12766667,6.61148529 1.103,6.66966176 1.07666667,6.73697059 C0.948,7.05525 0.755333333,7.54670588 0.846333333,8.24719118 C0.847666667,8.25125 0.846333333,8.25632353 0.849,8.26038235 C0.872333333,8.43491176 0.909,8.61823529 0.972666667,8.81914706 L1.082,9.1655 C1.13166667,9.32244118 1.177,9.46280882 1.22133333,9.59742647 C1.22266667,9.60148529 1.224,9.60419118 1.22533333,9.60791176 C1.44533333,10.2684853 1.63166667,10.6517059 2.06,10.7903824 C2.29433333,10.8658088 2.47533333,10.8566765 2.621,10.8485588 L2.629,10.8485588 C2.73966667,11.1881471 3.08733333,11.9268529 4.06766667,12.1274265 C4.51433333,12.2201029 4.83866667,12.2478382 5.06766667,12.2637353 C5.18633333,12.5383824 5.241,13.1620882 5.241,13.5689853 C5.241,13.7090147 5.353,13.8226618 5.491,13.8226618 C5.629,13.8226618 5.741,13.7090147 5.741,13.5689853 C5.741,13.4566912 5.73566667,13.1039118 5.68733333,12.7352353 C5.75533333,12.7710882 5.828,12.7907059 5.909,12.7907059 C5.95833333,12.7907059 6.01166667,12.7842794 6.06633333,12.7697353 C6.21366667,12.7328676 6.32566667,12.6138088 6.43233333,12.4710735 C6.396,12.7352353 6.36966667,13.06975 6.36466667,13.5030294 C6.35933333,13.6444118 6.47,13.6985294 6.608,13.6985294 L6.61066667,13.6985294 C6.74733333,13.6985294 6.85933333,13.6494853 6.86066667,13.5108088 C6.86833333,12.8356912 6.95966667,12.2042059 7.05733333,12.0364412 C7.23833333,11.9955147 7.38933333,11.8882941 7.48966667,11.7337206 C7.60033333,11.5622353 7.638,11.3362941 7.59366667,11.1590588 C7.59233333,11.1526324 7.59366667,11.1458676 7.59233333,11.1380882 C7.59633333,11.1235441 7.625,11.0772059 7.69,11.0440588 C7.74733333,11.0136176 7.84233333,10.9899412 7.96233333,11.0427059 C8.06133333,11.0863382 8.16266667,11.1407941 8.26566667,11.1962647 C8.604,11.3785735 8.98833333,11.5859118 9.435,11.5054118 C9.56133333,11.48275 9.655,11.4986471 9.772,11.5199559 C10.0443333,11.5673088 10.3516667,11.6200735 10.978,11.2672941 C11.8933333,10.7521618 12.3516667,10.4944265 12.2446667,9.98335294 Z M9.43866667,1.55114706 C9.67066667,1.54066176 9.93233333,1.52882353 10.112,1.54979412 C10.397,1.58429412 11.3333333,1.97258824 11.8933333,2.20529412 L12.22,2.33991176 C12.448,2.43225 12.4883333,2.47588235 12.5626667,2.55401471 C12.6653333,2.66225 12.8073333,2.81039706 13.28,3.07726471 C13.5,3.20139706 13.6913333,3.40873529 13.8553333,3.64651471 C13.8073333,3.62013235 13.7643333,3.59239706 13.7433333,3.56330882 C13.5196667,3.25551471 13.272,3.10635294 13.0156667,3.12191176 C12.8216667,3.13273529 12.6756667,3.23420588 12.5756667,3.33330882 C12.4636667,3.28460294 12.3423333,3.25957353 12.2226667,3.266 C12.203,3.22913235 12.1783333,3.17366176 12.16,3.13002941 C12.056,2.88954412 11.8983333,2.52763235 11.4793333,2.31217647 C11.1236667,2.12986765 10.948,2.14576471 10.7863333,2.17992647 C10.7316667,2.19075 10.7096667,2.19582353 10.5663333,2.08758824 C10.1993333,1.80888235 9.79033333,1.93166176 9.49233333,2.02027941 C9.39833333,2.04801471 9.259,2.09029412 9.23033333,2.08894118 C9.043,1.95026471 9.21733333,1.57482353 9.224,1.56027941 C9.293,1.55757353 9.36333333,1.55520588 9.43866667,1.55114706 Z M7.603,1.65566176 C7.65233333,1.66073529 7.698,1.6675 7.737,1.67122059 C7.89066667,1.68576471 8.095,1.64889706 8.31,1.60932353 C8.435,1.58666176 8.57933333,1.56163235 8.694,1.55114706 C8.60666667,1.84980882 8.60033333,2.24858824 8.935,2.49719118 C9.14333333,2.65311765 9.39333333,2.57769118 9.634,2.50497059 C9.91533333,2.42041176 10.112,2.37441176 10.267,2.49177941 C10.539,2.69810294 10.6953333,2.71501471 10.8866667,2.67544118 C10.9583333,2.65954412 11.026,2.64635294 11.254,2.76405882 C11.513,2.89597059 11.6133333,3.12867647 11.7016667,3.33330882 C11.7863333,3.5305 11.914,3.82611765 12.2396667,3.77470588 C12.388,3.75102941 12.5363333,3.88192647 12.59,4.02432353 C12.6393333,4.15792647 12.6053333,4.26345588 12.487,4.34023529 C12.2043333,4.52389706 11.6743333,4.44339706 11.2123333,3.93875 C11.1183333,3.83558824 10.9596667,3.83017647 10.8593333,3.92522059 C10.7576667,4.02060294 10.7526667,4.18160294 10.8463333,4.28341176 C11.276,4.75119118 11.7473333,4.93485294 12.1483333,4.93485294 C12.3826667,4.93485294 12.591,4.87261765 12.7553333,4.76708824 C13.073,4.56211765 13.1913333,4.20020588 13.0573333,3.84201471 C13.0326667,3.77741176 13,3.71788235 12.9636667,3.66241176 C12.9896667,3.64279412 13.017,3.62825 13.0456667,3.62689706 C13.125,3.62689706 13.2316667,3.71145588 13.3423333,3.86332353 C13.4896667,4.06558824 13.75,4.16333824 13.9803333,4.24891176 C14.0716667,4.28341176 14.1993333,4.33245588 14.2576667,4.37067647 C14.366,4.60980882 14.4466667,4.82526471 14.4986667,4.96394118 C14.5313333,5.04985294 14.5546667,5.11175 14.569,5.14219118 C14.5976667,5.20172059 14.6146667,5.29033824 14.6393333,5.42360294 C14.668,5.57952941 14.7083333,5.79227941 14.7943333,6.08688235 C14.8866667,6.40651471 14.8006667,6.54925 14.733,6.61013235 C14.6653333,6.58104412 14.5626667,6.46198529 14.5233333,6.12780882 C14.483,5.78822059 14.358,5.53319118 14.1496667,5.37354412 C13.879,5.16485294 13.5766667,5.20442647 13.5443333,5.2095 C13.4076667,5.23080882 13.3136667,5.36035294 13.3346667,5.49902941 C13.3553333,5.63770588 13.483,5.73139706 13.6196667,5.71177941 C13.621,5.71177941 13.7446667,5.69994118 13.8463333,5.77773529 C13.9426667,5.85180882 14.004,5.99048529 14.026,6.18869118 C14.0716667,6.57461765 14.198,6.84926471 14.4036667,7.00248529 C14.4506667,7.03698529 14.4946667,7.05930882 14.539,7.07791176 C14.5573333,7.13067647 14.5766667,7.19933824 14.543,7.35526471 C14.4816667,7.64208824 14.034,7.93669118 13.7616667,7.99622059 C13.5873333,8.03444118 13.47,8.08855882 13.3566667,8.14132353 C13.237,8.19679412 13.125,8.24989706 12.918,8.29589706 C12.6263333,8.36219118 12.2226667,8.33817647 12.0403333,8.32227941 C11.9283333,8.18766176 11.7956667,8.06082353 11.634,7.95258824 C11.6236667,7.94582353 11.6133333,7.93804412 11.603,7.93127941 C11.9673333,7.79530882 12.3346667,7.52979412 12.4793333,7.05152941 C12.5196667,6.91792647 12.4453333,6.77519118 12.3136667,6.73426471 C12.181,6.69333824 12.0416667,6.76876471 12.0013333,6.90202941 C11.8826667,7.29438235 11.5053333,7.45436765 11.2226667,7.51389706 C11.3256667,7.32211765 11.409,7.09110294 11.3086667,6.87023529 C11.2513333,6.74238235 11.1016667,6.68555882 10.9766667,6.74475 C10.8516667,6.80292647 10.7956667,6.95242647 10.854,7.07926471 C10.8673333,7.14657353 10.7396667,7.35120588 10.6913333,7.42798529 C10.677,7.45166176 10.664,7.47432353 10.6496667,7.49664706 C10.478,7.47669118 10.297,7.49123529 10.095,7.56395588 C9.91666667,7.62889706 9.715,7.59845588 9.517,7.51897059 C9.604,7.50983824 9.685,7.45572059 9.72,7.36710294 C9.759,7.27070588 9.73566667,7.16517647 9.66933333,7.09380882 C9.66666667,7.05288235 9.66933333,6.93788235 9.75666667,6.69875 C10.0156667,5.98507353 9.55866667,4.92166176 9.134,4.63077941 C8.94933333,4.50394118 8.69266667,4.47248529 8.46733333,4.44475 C8.37766667,4.43392647 8.25133333,4.41802941 8.177,4.39705882 C8.38033333,3.85013235 8.17433333,3.39283824 7.61066667,3.14322059 C7.57666667,3.12867647 7.54433333,3.10229412 7.513,3.06914706 C7.18866667,2.70994118 6.698,2.68998529 6.35533333,2.82730882 C6.20966667,2.88683824 6.10166667,2.91322059 6.03766667,2.91457353 C6.065,2.88041176 6.10033333,2.84185294 6.125,2.81411765 C6.26033333,2.66495588 6.54166667,2.35445588 6.28,2.05173529 C6.17566667,1.93301471 6.04566667,1.85352941 5.91133333,1.79805882 C5.99733333,1.76389706 6.10533333,1.73075 6.237,1.70030882 C6.58333333,1.78351471 6.70566667,2.00844118 6.77733333,2.14576471 C6.81366667,2.21577941 6.849,2.28308824 6.92833333,2.32672059 C7.16,2.45220588 7.371,2.36629412 7.496,2.31352941 C7.53133333,2.30033824 7.586,2.28308824 7.604,2.28308824 L7.60533333,2.28308824 C7.621,2.28308824 7.629,2.31082353 7.651,2.40316176 C7.68633333,2.55536765 7.73833333,2.77860294 8.00533333,2.94636765 C8.05733333,2.97951471 8.125,3.05460294 8.19533333,3.13273529 C8.396,3.35597059 8.70066667,3.69555882 9.25,3.69555882 C9.41,3.69555882 9.59233333,3.66647059 9.79833333,3.59645588 C9.92966667,3.55147059 10,3.40873529 9.95566667,3.27547059 C9.91133333,3.14186765 9.77066667,3.0705 9.63933333,3.11548529 C9.039,3.31876471 8.80866667,3.06272059 8.56366667,2.79044118 C8.46866667,2.68491176 8.379,2.58445588 8.267,2.51444118 C8.17966667,2.45998529 8.16533333,2.40722059 8.13666667,2.28173529 C8.108,2.15489706 8.06366667,1.96480882 7.86966667,1.84033824 C7.64333333,1.69794118 7.42966667,1.78757353 7.30333333,1.84033824 C7.254,1.86164706 7.22266667,1.87348529 7.20166667,1.87889706 C7.16666667,1.81260294 7.11066667,1.71620588 7.026,1.61575 C7.26166667,1.61575 7.453,1.63841176 7.603,1.65566176 Z M6.134,12.0178382 C6.073,12.1078088 5.97,12.2569706 5.94,12.2782794 C5.92966667,12.2809853 5.922,12.282 5.918,12.2833529 C5.90633333,12.2664412 5.884,12.2214559 5.85166667,12.1128824 C5.76166667,11.8013676 5.49233333,11.7841176 5.17966667,11.7628088 C4.95066667,11.7469118 4.63533333,11.7259412 4.164,11.6295441 C3.70066667,11.5345 3.42833333,11.2781176 3.272,11.0427059 C3.668,11.1563529 4.134,10.9994118 4.46233333,10.8871176 C4.539,10.8603971 4.608,10.8367206 4.664,10.8208235 C5.01166667,10.7257794 5.31,10.7098824 5.44133333,10.7771912 C5.54166667,10.8289412 5.73033333,10.8803529 6.056,10.9649118 C6.35933333,11.0440588 6.96866667,11.2040441 7.11333333,11.2990882 C7.112,11.3440735 7.10166667,11.3944706 7.073,11.4391176 C7.04166667,11.4881618 6.99466667,11.5013529 6.931,11.5118382 C6.91,11.5145441 6.884,11.5199559 6.854,11.5290882 C6.819,11.5317941 6.78133333,11.5331471 6.73833333,11.5317941 C6.47133333,11.5158971 6.30066667,11.7746471 6.134,12.0178382 Z M11.918,9.51286765 C11.8346667,9.62245588 11.6966667,9.80476471 11.7566667,10.0902353 C11.7656667,10.1338676 11.7226667,10.1920441 11.647,10.258 C11.6913333,9.97117647 11.629,9.82336765 11.5626667,9.69652941 C11.5286667,9.63429412 11.5183333,9.61332353 11.5456667,9.49155882 C11.603,9.23788235 11.5506667,8.99232353 11.3996667,8.80088235 C11.2303333,8.58542647 10.9363333,8.44539706 10.651,8.44539706 C10.513,8.44539706 10.401,8.55904412 10.401,8.69907353 C10.401,8.83910294 10.513,8.95275 10.651,8.95275 C10.785,8.95275 10.9336667,9.02005882 11.009,9.11645588 C11.0663333,9.18917647 11.082,9.27508824 11.0586667,9.37825 C10.9946667,9.66067647 11.0533333,9.80341176 11.1236667,9.93701471 C11.1576667,10.0016176 11.177,10.0374706 11.155,10.1815588 C11.099,10.5380588 11.0963333,10.5461765 10.7266667,10.8302941 C10.263,11.0876912 10.0743333,11.05725 9.85933333,11.0190294 C9.71866667,10.9953529 9.56266667,10.9676176 9.35033333,11.0058382 C9.073,11.0548824 8.79566667,10.9053824 8.50266667,10.74675 C8.388,10.6848529 8.27466667,10.6239706 8.164,10.5739118 C7.81366667,10.4206912 7.49466667,10.5316324 7.31366667,10.6899265 C7.27733333,10.7230735 7.246,10.7589265 7.21866667,10.7944412 C6.996,10.6966912 6.66666667,10.6002941 6.18366667,10.4734559 C5.98033333,10.4206912 5.728,10.3543971 5.672,10.3253088 C5.427,10.1998235 5.09233333,10.2157206 4.79566667,10.2711912 C4.80733333,10.1920441 4.78633333,10.1101912 4.72533333,10.0506618 C4.72266667,10.0479559 4.526,9.84839706 4.608,9.54736765 C4.63533333,9.48783824 4.65766667,9.42052941 4.68233333,9.34104412 C4.70566667,9.26595588 4.75,9.11645588 4.78766667,9.05963235 C4.85666667,9.05963235 5.01433333,9.09007353 5.121,9.11239706 C5.26033333,9.14148529 5.41933333,9.17327941 5.57433333,9.18004412 C5.69266667,9.49697059 5.94933333,9.74286765 6.32033333,9.88154412 C6.39833333,9.91063235 6.60033333,9.97929412 6.776,9.97929412 C6.866,9.97929412 6.95066667,9.96204412 7.00766667,9.91063235 C7.11333333,9.81930882 7.125,9.65966176 7.035,9.55244118 C6.97266667,9.47735294 6.87633333,9.44826471 6.78633333,9.47058824 C6.70833333,9.46382353 6.22133333,9.40192647 6.05466667,9.03595588 C6.09633333,8.99638235 6.13266667,8.95139706 6.16133333,8.89051471 C6.19533333,8.81914706 6.216,8.72680882 6.228,8.63176471 C6.422,8.73323529 6.63166667,8.77957353 6.86733333,8.72545588 C7.36066667,8.60910294 7.966,8.51405882 8.28266667,8.80189706 C8.284,8.80325 8.285,8.80325 8.28633333,8.80460294 C8.28766667,8.80595588 8.28766667,8.80730882 8.289,8.80866176 C8.67066667,9.13235294 8.51166667,9.50238235 8.491,9.54601471 C8.42966667,9.67014706 8.478,9.82201471 8.60033333,9.88560294 C8.63666667,9.90386765 8.67566667,9.91333824 8.71366667,9.91333824 C8.80466667,9.91333824 8.892,9.86294118 8.93633333,9.77567647 C9.06766667,9.51422059 9.16933333,8.89592647 8.60933333,8.42036765 C8.60666667,8.41766176 8.603,8.41766176 8.60033333,8.41495588 C8.11466667,7.98810294 7.396,8.08314706 6.754,8.234 C6.47533333,8.29860294 6.216,8.04222059 5.82033333,7.61029412 C5.72,7.50070588 5.61733333,7.39111765 5.509,7.28254412 C5.19,6.96291176 5.20433333,6.62738235 5.22533333,6.15689706 C5.23166667,6.00908824 5.23833333,5.86635294 5.23433333,5.71042647 C5.21366667,4.99675 4.759,4.81985294 4.522,4.81985294 L4.51966667,4.81985294 C4.38266667,4.81985294 4.27066667,4.91489706 4.26966667,5.05357353 C4.26833333,5.19360294 4.379,5.29169118 4.517,5.29169118 C4.51966667,5.29169118 4.72133333,5.29811765 4.73166667,5.70636765 C4.73566667,5.84910294 4.72933333,5.98913235 4.724,6.12510294 C4.70966667,6.45285294 4.69666667,6.78838235 4.81633333,7.11342647 C4.815,7.12019118 4.81366667,7.12289706 4.81366667,7.12932353 C4.73833333,7.53486765 4.62766667,7.80579412 4.32566667,7.80579412 C4.23566667,7.80579412 4.13166667,7.77535294 4.01966667,7.74254412 C3.789,7.67388235 3.50266667,7.58932353 3.18733333,7.73307353 C3.05733333,7.79260294 2.96233333,7.89711765 2.91266667,8.03714706 C2.772,8.43220588 3.03633333,9.02276471 3.091,9.13776471 C3.134,9.22739706 3.224,9.2805 3.31633333,9.2805 C3.353,9.2805 3.38933333,9.27238235 3.42566667,9.25513235 C3.54933333,9.19458824 3.60166667,9.04238235 3.54166667,8.91689706 C3.39466667,8.60639706 3.33333333,8.25632353 3.39333333,8.19544118 C3.534,8.13219118 3.67066667,8.16669118 3.88033333,8.22858824 C4.02066667,8.26951471 4.16533333,8.31314706 4.32566667,8.31314706 C4.82033333,8.31314706 5.06133333,7.98032353 5.185,7.66847059 C5.276,7.76216176 5.366,7.85855882 5.45166667,7.95258824 C5.54566667,8.05405882 5.63933333,8.15722059 5.737,8.25361765 C5.74733333,8.38722059 5.74233333,8.60267647 5.716,8.66186765 C5.64833333,8.70279412 5.35666667,8.64360294 5.21733333,8.61451471 C4.98033333,8.56547059 4.77466667,8.52183824 4.608,8.57866176 C4.362,8.66051471 4.272,8.95410294 4.20066667,9.19052941 C4.18366667,9.246 4.16,9.32244118 4.147,9.34645588 C4.142,9.35558824 4.142,9.36607353 4.138,9.37554412 C4.134,9.38467647 4.12766667,9.39279412 4.12366667,9.40327941 C4.121,9.41511765 4.121,9.42425 4.11833333,9.43608824 C4.11833333,9.43879412 4.11733333,9.44285294 4.11733333,9.44555882 C4,9.94107353 4.26433333,10.2911471 4.35166667,10.3888971 C4.336,10.3939706 4.32033333,10.3993824 4.30333333,10.4047941 C4.01833333,10.5025441 3.54166667,10.66625 3.31633333,10.5157353 C3.01833333,10.3175294 2.79166667,10.3280147 2.59366667,10.3398529 C2.46733333,10.3466176 2.358,10.3516912 2.211,10.3043382 C2.00766667,10.2383824 1.884,9.99248529 1.71366667,9.48919118 C1.72666667,9.40970588 1.75766667,9.32142647 1.78266667,9.30688235 C1.78266667,9.30688235 1.80466667,9.30282353 1.86066667,9.32920588 C1.987,9.38738235 2.13533333,9.33191176 2.19266667,9.20507353 C2.25,9.07823529 2.19533333,8.92772059 2.07033333,8.86819118 C1.819,8.75048529 1.638,8.80460294 1.52866667,8.87089706 C1.52466667,8.87326471 1.52066667,8.87732353 1.517,8.88002941 L1.44666667,8.66051471 C1.41,8.54720588 1.384,8.44133824 1.36466667,8.33817647 C1.491,8.50086765 1.70566667,8.625 1.94933333,8.625 L1.96233333,8.625 C2.22133333,8.625 2.44666667,8.47955882 2.578,8.29217647 C2.65766667,8.17988235 2.715,7.99351471 2.77733333,7.83082353 C2.95566667,7.36202941 3.06366667,7.17430882 3.28,7.22572059 C3.41533333,7.25751471 3.54833333,7.17430882 3.57933333,7.03833824 C3.61066667,6.90202941 3.526,6.77011765 3.392,6.73832353 C2.716,6.58104412 2.46233333,7.26292647 2.31,7.66576471 C2.263,7.79125 2.21366667,7.93804412 2.17066667,7.99757353 C2.134,8.05033824 2.052,8.11764706 1.95566667,8.11764706 L1.95066667,8.11764706 C1.84366667,8.11764706 1.767,8.04492647 1.746,8.01719118 C1.59766667,7.81763235 1.44133333,7.74389706 1.32666667,7.73713235 C1.35033333,7.43069118 1.435,7.18885294 1.51166667,6.99741176 C1.58333333,7.07655882 1.67966667,7.13845588 1.81266667,7.13845588 C1.84233333,7.13845588 1.87233333,7.13608824 1.90633333,7.12932353 C2.30333333,7.05288235 2.35033333,6.69875 2.38533333,6.43966176 C2.41266667,6.23232353 2.44266667,6.01686765 2.59366667,5.81866176 C2.92966667,5.37997059 3.19133333,5.39079412 3.43233333,5.43679412 C3.608,5.47264706 3.71866667,5.39586765 3.76833333,5.34580882 C3.93366667,5.18176471 3.892,4.92538235 3.84766667,4.65344118 C3.83066667,4.55027941 3.81,4.42344118 3.81766667,4.36932353 C3.85166667,4.09569118 4.23166667,3.72194118 4.39966667,3.66241176 C4.629,4.07336765 4.91266667,4.11158824 4.96866667,4.11429412 L5.01833333,4.11294118 C6.181,4.06288235 6.34766667,4.23470588 6.371,4.28882353 C6.465,4.508 6.59233333,4.60980882 6.69533333,4.69166176 C6.81633333,4.78941176 6.91266667,4.86483824 6.99866667,5.21085294 C7.10666667,5.64819118 7.026,5.80141176 6.99733333,5.83861765 C6.987,5.85316176 6.95833333,5.88360294 6.87366667,5.88597059 C6.73566667,5.89273529 6.629,5.99319118 6.63533333,6.13322059 C6.638,6.27054412 6.74866667,6.34191176 6.88166667,6.34191176 L6.89333333,6.34191176 C7.10166667,6.34191176 7.28,6.27460294 7.396,6.11597059 C7.56766667,5.88089706 7.59633333,5.55991176 7.48033333,5.09213235 C7.36333333,4.61894118 7.194,4.45252941 7.00266667,4.29795588 C6.92066667,4.232 6.871,4.19242647 6.82666667,4.08926471 C6.621,3.60694118 5.82933333,3.57142647 5.00533333,3.60694118 C4.978,3.59510294 4.89833333,3.54741176 4.81366667,3.37964706 C4.724,3.20275 4.547,3.11819118 4.34233333,3.15505882 C3.922,3.23048529 3.37766667,3.84336765 3.319,4.30573529 C3.30333333,4.43392647 3.32666667,4.58207353 3.353,4.738 C3.36066667,4.78805882 3.37233333,4.85672059 3.379,4.91760294 C3.04166667,4.88208824 2.62366667,4.95345588 2.198,5.50816176 C1.96366667,5.81460294 1.92066667,6.13727941 1.88933333,6.37235294 C1.88033333,6.44101471 1.86733333,6.53741176 1.841,6.59288235 C1.828,6.56108824 1.815,6.52557353 1.806,6.50054412 C1.79033333,6.45691176 1.77066667,6.40279412 1.74333333,6.35104412 C1.86466667,6.01145588 1.99866667,5.68539706 2.091,5.54638235 C2.18366667,5.40770588 2.32666667,5.13170588 2.478,4.83845588 C2.60166667,4.59797059 2.73033333,4.35072059 2.79433333,4.25297059 C3.06133333,3.84742647 3.59,3.16047059 3.73433333,3.07963235 L3.828,2.99270588 C4.04933333,2.64127941 4.793,2.32401471 5.25533333,2.18939706 C5.388,2.18669118 5.694,2.21172059 5.862,2.35039706 C5.83333333,2.38861765 5.78766667,2.43901471 5.75666667,2.47317647 C5.63166667,2.61083824 5.47666667,2.78266176 5.49866667,3.00319118 C5.50766667,3.09045588 5.54933333,3.21594118 5.69666667,3.32147059 C5.98166667,3.52779412 6.34366667,3.37964706 6.539,3.3005 C6.72266667,3.22642647 6.97933333,3.23319118 7.142,3.41279412 C7.22,3.50005882 7.31,3.56601471 7.40766667,3.60829412 C7.789,3.77741176 7.80066667,3.98204412 7.69933333,4.23707353 C7.621,4.43392647 7.66266667,4.57395588 7.71233333,4.65851471 C7.841,4.87938235 8.12766667,4.91489706 8.40366667,4.94939706 C8.565,4.96901471 8.76566667,4.99438235 8.85033333,5.05255882 C9.121,5.23858824 9.44933333,6.06726471 9.284,6.52422059 C9.10666667,7.00925 9.15766667,7.25616176 9.24733333,7.38435294 C9.10933333,7.29844118 8.978,7.19426471 8.866,7.08569118 C8.664,6.89154412 8.48833333,6.80563235 8.32033333,6.76605882 C8.67966667,6.24686765 8.53,5.85958824 8.50666667,5.80817647 C8.45166667,5.68404412 8.31266667,5.63229412 8.18733333,5.68269118 C8.06366667,5.73275 8.00266667,5.87954412 8.047,6.00773529 C8.05066667,6.01957353 8.13933333,6.30098529 7.68633333,6.73155882 C7.56766667,6.75016176 7.43733333,6.7965 7.29433333,6.85061765 C7.047,6.94295588 6.73966667,7.05525 6.56366667,6.97204412 C6.48433333,6.93382353 6.42333333,6.85061765 6.37633333,6.71464706 C6.237,6.31282353 6.22533333,5.94414706 6.215,5.64819118 C6.203,5.29405882 6.19,4.89257353 5.81133333,4.81985294 C5.67433333,4.79347059 5.54566667,4.88445588 5.51966667,5.02211765 C5.496,5.14895588 5.57033333,5.27038235 5.68733333,5.30995588 C5.707,5.37726471 5.71233333,5.54130882 5.716,5.66408824 C5.72666667,5.97729412 5.73966667,6.4055 5.905,6.88241176 C5.99733333,7.14792647 6.147,7.33158824 6.35166667,7.42933824 C6.71733333,7.60352941 7.134,7.45030882 7.46733333,7.32617647 C7.573,7.28660294 7.73433333,7.22707353 7.78266667,7.22977941 C7.83466667,7.23248529 7.88266667,7.23383824 7.92966667,7.23519118 C8.18866667,7.24161765 8.306,7.24567647 8.52333333,7.45436765 C9.09766667,8.00805882 9.74733333,8.22858824 10.2603333,8.04222059 C10.4336667,7.98032353 10.578,7.97626471 10.7396667,8.02902941 L10.7486667,8.03173529 L10.7513333,8.03173529 C10.9166667,8.08855882 11.103,8.20355882 11.3606667,8.37538235 C11.8046667,8.67133824 11.965,9.14419118 11.9896667,9.37689706 C11.991,9.40970588 11.9803333,9.42966176 11.918,9.51286765 Z" id="Fill-2"></path>
                        <path d="M9.715,3.97020588 C9.71233333,3.85520588 9.634,3.75373529 9.51833333,3.72836765 C9.384,3.69961765 9.25,3.78519118 9.22,3.9215 C9.19933333,4.01925 9.181,4.36154412 9.83866667,4.65208824 C10.254,4.83575 10.254,4.83710294 10.25,5.37219118 C10.2446667,6.07639706 10.841,6.141 11.3216667,6.19004412 C11.8136667,6.24145588 12.3723333,6.30233824 12.7433333,6.85332353 C12.892,7.07385294 13.116,7.14116176 13.2786667,7.1875 C13.3346667,7.20339706 13.4193333,7.23654412 13.435,7.25108824 C13.435,7.25108824 13.4386667,7.28254412 13.4386667,7.31163235 C13.4386667,7.45301471 13.5493333,7.61029412 13.6873333,7.61029412 L13.6886667,7.61029412 C13.8266667,7.61029412 13.9386667,7.45436765 13.9386667,7.31433824 C13.94,6.87835294 13.5963333,6.73967647 13.4113333,6.68792647 C13.2813333,6.65241176 13.2006667,6.62738235 13.1563333,6.56244118 C12.655,5.81730882 11.914,5.74086765 11.3736667,5.68404412 C10.8033333,5.62451471 10.75,5.57547059 10.7513333,5.37625 C10.7566667,4.61116176 10.6706667,4.46572059 10.039,4.18701471 C9.80066667,4.08114706 9.73166667,3.99658824 9.715,3.97020588 Z" id="Fill-3"></path>
                        <path d="M9.77466667,9.36505882 C9.685,9.25919118 9.52733333,9.246 9.422,9.33698529 C9.31766667,9.42830882 9.30466667,9.58829412 9.39466667,9.69517647 C9.50266667,9.82336765 9.61066667,9.99519118 9.63533333,10.0743382 C9.57566667,10.2052353 9.61733333,10.3029853 9.64966667,10.3530441 C9.74733333,10.5025441 9.91133333,10.4761618 9.98966667,10.4616176 C10.103,10.4430147 10.1653333,10.4416618 10.211,10.4866471 C10.259,10.5343382 10.3216667,10.5580147 10.384,10.5580147 C10.4493333,10.5580147 10.5143333,10.5316324 10.5636667,10.4798824 C10.66,10.3797647 10.6576667,10.2184265 10.5586667,10.1220294 C10.4166667,9.982 10.2526667,9.94479412 10.1173333,9.94242647 C10.0626667,9.74286765 9.91666667,9.53417647 9.77466667,9.36505882 Z" id="Fill-4"></path>
                    </g>
                </g>
            </g>
        </g>
    </g>
</svg>