<?xml version="1.0" encoding="UTF-8"?>
<svg width="26px" height="20px" viewBox="0 0 26 20" version="1.1" xmlns="http://www.w3.org/2000/svg" xmlns:xlink="http://www.w3.org/1999/xlink">
    <!-- Generator: sketchtool 42 (36781) - http://www.bohemiancoding.com/sketch -->
    <title>352556B6-1737-427B-9A28-ED5184684DC2</title>
    <desc>Created with sketchtool.</desc>
    <defs></defs>
    <g id="Page-1" stroke="none" stroke-width="1" fill="none" fill-rule="evenodd">
        <g id="Paquetes" transform="translate(-114.000000, -521.000000)" fill="#E77D16">
            <g id="Group-2" transform="translate(67.000000, 436.000000)">
                <path d="M48.7400608,85 C47.7853808,85 47.0000608,85.78532 47.0000608,86.74 L47.0000608,97.76 C46.9954208,98.0832533 47.2568075,98.3477333 47.5800608,98.3477333 C47.9033142,98.3477333 48.1647008,98.0832533 48.1600608,97.76 L48.1600608,86.74 C48.1600608,86.4094 48.4094608,86.16 48.7400608,86.16 L70.7800608,86.16 C71.1106608,86.16 71.3600608,86.4094 71.3600608,86.74 L71.3600608,100.08 C71.3600608,100.4106 71.1106608,100.66 70.7800608,100.66 L48.7400608,100.66 C48.4094608,100.66 48.1600608,100.4106 48.1600608,100.08 C48.1647008,99.7567467 47.9033142,99.4922667 47.5800608,99.4922667 C47.2568075,99.4922667 46.9954208,99.7567467 47.0000608,100.08 C47.0000608,101.03468 47.7853808,101.82 48.7400608,101.82 L59.1800608,101.82 L59.1800608,103.56 L55.9900608,103.56 C55.9718875,103.558453 55.9537142,103.558453 55.9355408,103.56 C55.1622075,103.596347 55.2167275,104.756347 55.9900608,104.72 L63.5300608,104.72 C63.8533142,104.72464 64.1177942,104.463253 64.1177942,104.14 C64.1177942,103.816747 63.8533142,103.55536 63.5300608,103.56 L60.3400608,103.56 L60.3400608,101.82 L70.7800608,101.82 C71.7347408,101.82 72.5200608,101.03468 72.5200608,100.08 L72.5200608,86.74 C72.5200608,85.78532 71.7347408,85 70.7800608,85 L48.7400608,85 Z M61.7173675,88.48 L61.7173675,88.48 C61.4911675,88.51016 61.3036342,88.6686933 61.2371275,88.8879333 L59.1073675,95.97476 L57.1137142,90.8726933 C56.9339142,90.4117867 56.2966875,90.3738933 56.0627542,90.8088933 L54.7755408,93.12 L51.9300608,93.12 C51.6068075,93.11536 51.3411675,93.3767467 51.3411675,93.7 C51.3411675,94.0232533 51.6068075,94.28464 51.9300608,94.28 L55.1200608,94.28 C55.3315675,94.28 55.5249008,94.16516 55.6273675,93.9811067 L56.4795808,92.44952 L58.6364075,97.9684133 C58.8370875,98.4834533 59.5756208,98.4532933 59.7329942,97.9231733 L61.7989542,91.03548 L62.6871275,93.8720667 C62.7629142,94.1137333 62.9864075,94.28 63.2400608,94.28 L67.5900608,94.28 C67.9133142,94.28464 68.1789542,94.0232533 68.1789542,93.7 C68.1789542,93.3767467 67.9133142,93.11536 67.5900608,93.12 L63.6661675,93.12 L62.3429942,88.8786533 C62.2567675,88.6130133 61.9938342,88.4452 61.7173675,88.48 Z" id="Page-1"></path>
            </g>
        </g>
    </g>
</svg>