<?xml version="1.0" encoding="UTF-8"?>
<svg width="21px" height="17px" viewBox="0 0 21 17" version="1.1" xmlns="http://www.w3.org/2000/svg" xmlns:xlink="http://www.w3.org/1999/xlink">
    <!-- Generator: sketchtool 42 (36781) - http://www.bohemiancoding.com/sketch -->
    <title>3172FCC5-D4B7-484E-83ED-D502311AC357</title>
    <desc>Created with sketchtool.</desc>
    <defs></defs>
    <g id="Page-1" stroke="none" stroke-width="1" fill="none" fill-rule="evenodd">
        <g id="Paquetes" transform="translate(-117.000000, -469.000000)" fill="#ED7161">
            <g id="Group-2" transform="translate(67.000000, 436.000000)">
                <path d="M70.1038933,42.75 C69.9426933,37.3468533 65.49704,33 60.05472,33 C54.6124,33 50.1667467,37.3468533 50.0055467,42.75 L50,42.75 L50,47.9295467 C50,48.9938133 50.86528,49.8590933 51.9295467,49.8590933 C52.91824,49.8590933 53.7349867,49.11168 53.84592,48.1531467 C54.6744533,48.7338133 56.3755467,49.0277867 58.97936,49.0454667 C59.1121333,49.5138133 59.54408,49.8590933 60.05472,49.8590933 C60.6707467,49.8590933 61.1720267,49.35816 61.1720267,48.7421333 C61.1720267,48.12576 60.6707467,47.6248267 60.05472,47.6248267 C59.54408,47.6248267 59.11352,47.96872 58.9807467,48.4360267 C54.36592,48.40344 53.85944,47.50696 53.85944,47.11696 L53.85944,44.6795467 C53.85944,43.61528 52.99416,42.75 51.9295467,42.75 L50.6149867,42.75 C50.77584,37.6824267 54.94832,33.6090933 60.05472,33.6090933 C65.16112,33.6090933 69.3336,37.6824267 69.4944533,42.75 L68.1798933,42.75 C67.11528,42.75 66.25,43.61528 66.25,44.6795467 L66.25,47.9295467 C66.25,48.9938133 67.11528,49.8590933 68.1798933,49.8590933 C69.24416,49.8590933 70.10944,48.9938133 70.10944,47.9295467 L70.10944,42.75 L70.1038933,42.75 Z M60.05472,48.2342667 C60.3351733,48.2342667 60.5625867,48.46168 60.5625867,48.7421333 C60.5625867,49.02224 60.3351733,49.25 60.05472,49.25 C59.7742667,49.25 59.5468533,49.02224 59.5468533,48.7421333 C59.5468533,48.46168 59.7742667,48.2342667 60.05472,48.2342667 Z M53.25,44.6795467 L53.25,47.9295467 C53.25,48.65824 52.65824,49.25 51.9295467,49.25 C51.2012,49.25 50.60944,48.65824 50.60944,47.9295467 L50.60944,43.3590933 L51.9295467,43.3590933 C52.65824,43.3590933 53.25,43.9508533 53.25,44.6795467 Z M69.5,47.9295467 C69.5,48.65824 68.90824,49.25 68.1798933,49.25 C67.4512,49.25 66.85944,48.65824 66.85944,47.9295467 L66.85944,44.6795467 C66.85944,43.9508533 67.4512,43.3590933 68.1798933,43.3590933 L69.5,43.3590933 L69.5,47.9295467 Z" id="Page-1"></path>
            </g>
        </g>
    </g>
</svg>