<?xml version="1.0" encoding="UTF-8"?>
<svg width="20px" height="26px" viewBox="0 0 20 26" version="1.1" xmlns="http://www.w3.org/2000/svg" xmlns:xlink="http://www.w3.org/1999/xlink">
    <!-- Generator: sketchtool 42 (36781) - http://www.bohemiancoding.com/sketch -->
    <title>1E418326-6587-48CC-8EF3-95A2C3F47961</title>
    <desc>Created with sketchtool.</desc>
    <defs></defs>
    <g id="Page-1" stroke="none" stroke-width="1" fill="none" fill-rule="evenodd">
        <g id="Paquetes" transform="translate(-563.000000, -563.000000)" fill="#ED7161">
            <g id="Group-2" transform="translate(67.000000, 436.000000)">
                <g id="Group" transform="translate(493.000000, 29.000000)">
                    <g id="Page-1-Copy" transform="translate(3.000000, 98.000000)">
                        <path d="M17.6030189,25.7173913 L2.39698113,25.7173913 C1.08490566,25.7173913 0.019245283,24.6517681 0.019245283,23.3431014 L0.019245283,2.65689855 C0.0177358491,1.34823188 1.08490566,0.282608696 2.39698113,0.282608696 L17.6045283,0.282608696 C18.9166038,0.282608696 19.9822642,1.34823188 19.9822642,2.65689855 L19.9822642,23.3415942 C19.9822642,24.6517681 18.9150943,25.7173913 17.6030189,25.7173913 Z M2.39698113,1.53211594 C1.77622642,1.53211594 1.27056604,2.03704348 1.27056604,2.65689855 L1.27056604,23.3415942 C1.27056604,23.9614493 1.77622642,24.4663768 2.39698113,24.4663768 L17.6045283,24.4663768 C18.225283,24.4663768 18.7309434,23.9614493 18.7309434,23.3415942 L18.7309434,2.65689855 C18.7309434,2.03704348 18.225283,1.53211594 17.6045283,1.53211594 L2.39698113,1.53211594 Z" id="Fill-1"></path>
                        <polygon id="Fill-2" points="2.70943396 8.55475362 17.2909434 8.55475362 17.2909434 8.05434783 2.70943396 8.05434783"></polygon>
                        <polygon id="Fill-3" points="2.70943396 11.349942 17.2909434 11.349942 17.2909434 10.8495362 2.70943396 10.8495362"></polygon>
                        <polygon id="Fill-4" points="2.70943396 16.9403188 17.2909434 16.9403188 17.2909434 16.439913 2.70943396 16.439913"></polygon>
                        <polygon id="Fill-5" points="2.70943396 19.7355072 17.2909434 19.7355072 17.2909434 19.2351014 2.70943396 19.2351014"></polygon>
                        <polygon id="Fill-6" points="2.70943396 22.5306957 17.2909434 22.5306957 17.2909434 22.0302899 2.70943396 22.0302899"></polygon>
                        <polygon id="Fill-7" points="2.70943396 10.3623188 5.37886792 10.3623188 5.37886792 9.11281159 2.70943396 9.11281159"></polygon>
                        <polygon id="Fill-8" points="15.9566038 10.3268986 17.2920755 10.3268986 17.2920755 9.0773913 15.9566038 9.0773913"></polygon>
                        <polygon id="Fill-9" points="15.4981132 15.9172754 17.290566 15.9172754 17.290566 14.6677681 15.4981132 14.6677681"></polygon>
                        <polygon id="Fill-10" points="16.214717 18.7124638 17.2909434 18.7124638 17.2909434 17.4629565 16.214717 17.4629565"></polygon>
                        <polygon id="Fill-11" points="14.9396226 7.53171014 17.290566 7.53171014 17.290566 6.2822029 14.9396226 6.2822029"></polygon>
                        <polygon id="Fill-12" points="2.70943396 13.149971 6.49471698 13.149971 6.49471698 11.9004638 2.70943396 11.9004638"></polygon>
                        <polygon id="Fill-13" points="16.214717 21.5076522 17.2909434 21.5076522 17.2909434 20.2581449 16.214717 20.2581449"></polygon>
                        <polygon id="Fill-14" points="16.214717 13.122087 17.2909434 13.122087 17.2909434 11.8725797 16.214717 11.8725797"></polygon>
                        <polygon id="Fill-15" points="2.70943396 15.9364928 5.73698113 15.9364928 5.73698113 14.6869855 2.70943396 14.6869855"></polygon>
                        <polygon id="Fill-16" points="2.70943396 18.7241449 7.48981132 18.7241449 7.48981132 17.4746377 2.70943396 17.4746377"></polygon>
                        <polygon id="Fill-17" points="2.70943396 21.5106667 5.53811321 21.5106667 5.53811321 20.2611594 2.70943396 20.2611594"></polygon>
                        <polygon id="Fill-18" points="2.70943396 14.1451304 17.2909434 14.1451304 17.2909434 13.6447246 2.70943396 13.6447246"></polygon>
                        <path d="M5.75018868,3.60457971 C5.14150943,3.60457971 4.96150943,3.80202899 4.76415094,3.80202899 C4.56679245,3.80202899 4.38528302,3.60457971 3.77811321,3.60457971 C3.1690566,3.60457971 2.70943396,4.23913043 2.70943396,4.93962319 C2.70943396,5.64049275 3.39924528,7.28150725 4.1554717,7.28150725 C4.5490566,7.28150725 4.64754717,7.18278261 4.76415094,7.18278261 C4.87924528,7.18278261 4.97773585,7.28150725 5.37283019,7.28150725 C6.1290566,7.28150725 6.81886792,5.64049275 6.81886792,4.93962319 C6.81886792,4.23913043 6.35924528,3.60457971 5.75018868,3.60457971 Z" id="Fill-19"></path>
                        <path d="M4.76415094,3.61814493 C4.63584906,3.61814493 4.52679245,3.51942029 4.51509434,3.3897971 C4.49132075,3.12489855 4.59018868,2.57286957 5.12226415,2.37843478 C5.25207547,2.33171014 5.39509434,2.39765217 5.44377358,2.52727536 C5.4909434,2.65689855 5.4245283,2.79971014 5.29471698,2.84831884 C4.98528302,2.96136232 5.01320755,3.3442029 5.01471698,3.34721739 C5.02641509,3.48550725 4.92490566,3.60608696 4.78641509,3.61814493 L4.76415094,3.61814493 Z" id="Fill-20"></path>
                    </g>
                </g>
            </g>
        </g>
    </g>
</svg>