<?xml version="1.0" encoding="UTF-8"?>
<svg width="76px" height="50px" viewBox="0 0 76 50" version="1.1" xmlns="http://www.w3.org/2000/svg" xmlns:xlink="http://www.w3.org/1999/xlink">
    <!-- Generator: sketchtool 42 (36781) - http://www.bohemiancoding.com/sketch -->
    <title>34F0D1A1-C31E-4BA3-B641-C4CDBCF17585</title>
    <desc>Created with sketchtool.</desc>
    <defs></defs>
    <g id="Page-1" stroke="none" stroke-width="1" fill="none" fill-rule="evenodd">
        <g id="Paquetes" transform="translate(-467.000000, -910.000000)" fill="#ED7161">
            <g id="Group-5" transform="translate(467.000000, 910.000000)">
                <g id="Group-4">
                    <g id="Page-1">
                        <path d="M12.0115529,18.1379254 L12.0115529,18.2052587 C12.4158812,24.7679254 17.0099111,29.9032587 22.4589409,29.9032587 C28.136329,29.9032587 32.9378962,24.1325921 32.9378962,17.2965921 C32.9378962,12.7259254 30.8228962,8.48925873 27.4176723,6.23125873 C26.9058812,5.88992539 26.2161051,5.92925873 25.7439409,6.33059206 C23.0466275,8.61659206 17.7943887,12.7759254 12.8249111,15.0305921 C12.3634932,15.2365921 12.0592395,15.6765921 12.016926,16.1819254 C12.0014783,16.5539254 11.990732,17.7259254 12.0115529,18.1379254 Z M14.7746872,17.1712587 C19.3002096,14.9632587 23.8834932,11.4785921 26.6882693,9.15325873 C28.8240902,11.0072587 30.1512544,14.0852587 30.1512544,17.3065921 C30.1512544,22.6479254 26.6305081,27.1612587 22.4481947,27.1612587 C18.5237917,27.1612587 15.0789409,23.0699254 14.7746872,18.1092587 L14.7746872,18.0099254 L14.7746872,17.1712587 Z" id="Fill-1"></path>
                        <path d="M37.575,29.3566667 C38.6375373,26.6226667 39.1990299,23.6246667 39.1990299,20.578 C39.2070896,9.22933333 31.6511194,0 22.3636567,0 C13.076194,0 5.52022388,9.22933333 5.52022388,20.5653333 C5.52022388,23.612 6.08171642,26.6093333 7.15231343,29.344 C3.18022388,29.5986667 0,33.888 0,39.1406667 L0,48.232 C0,48.992 0.619253731,49.6093333 1.38828358,49.6093333 L43.3289552,49.6093333 C44.0946269,49.6093333 44.7165672,48.9946667 44.7165672,48.232 L44.7165672,39.1406667 C44.7273134,33.896 41.5470896,29.6093333 37.575,29.3566667 Z M22.3636567,2.75266667 C30.1164179,2.75266667 36.423806,10.742 36.423806,20.5653333 C36.423806,23.6406667 35.7830597,26.6486667 34.5841791,29.3253333 L28.0907463,29.3253333 C27.5977612,29.3253333 27.1464179,29.5806667 26.8999254,30 L22.3636567,37.5 L17.8273881,29.9893333 C17.5808955,29.57 17.1295522,29.3153333 16.6365672,29.3153333 L10.1431343,29.3153333 C8.93350746,26.638 8.29343284,23.6326667 8.29343284,20.5546667 C8.30350746,10.742 14.6108955,2.75266667 22.3636567,2.75266667 Z M41.9406716,46.8566667 L2.78664179,46.8566667 L2.78664179,39.1433333 C2.78664179,35.3153333 4.96141791,32.0833333 7.52977612,32.0833333 L10.4574627,32.0833333 C9.53395522,33.294 9.2088806,34.5053333 9.09873134,35.4033333 C6.77686567,36.0393333 5.11320896,38.2266667 5.29186567,40.7366667 L5.49940299,43.7346667 C5.55716418,44.6226667 6.46455224,45.258 7.3591791,44.9346667 C7.96029851,44.7213333 8.30350746,44.0966667 8.26455224,43.4606667 L8.05701493,40.5493333 C7.95761194,39.164 9.06985075,37.982 10.4762687,37.982 C11.8826866,37.982 12.9949254,39.164 12.8948507,40.5493333 L12.6879851,43.5466667 C12.6382836,44.3073333 13.2098507,44.9633333 13.976194,45.0206667 C14.7237313,45.0986667 15.4034328,44.4633333 15.461194,43.742 L15.6680597,40.7446667 C15.8467164,38.2553333 14.2018657,36.078 11.9008209,35.422 C12.0794776,34.5413333 12.708806,33.206 14.6659701,32.0913333 L15.856791,32.0913333 L21.1802239,40.8986667 C21.7208955,41.7866667 23.0198507,41.7866667 23.5625373,40.8986667 L28.8859701,32.0913333 L30.5966418,32.0913333 C31.6981343,33.1273333 32.3388806,35.3333333 32.6431343,36.8673333 C31.1366418,37.482 30.0741045,38.956 30.0741045,40.6666667 C30.0741045,42.932 31.9345522,44.7786667 34.216791,44.7786667 C36.4997015,44.7786667 38.3594776,42.932 38.3594776,40.6666667 C38.3594776,38.82 37.1290299,37.258 35.4472388,36.7393333 C35.2511194,35.5886667 34.8179104,33.732 33.9521642,32.0913333 L37.2183582,32.0913333 C39.7867164,32.0913333 41.9621642,35.3226667 41.9621642,39.1513333 L41.9621642,46.8566667 L41.9406716,46.8566667 Z M35.5654478,40.6533333 C35.5654478,41.396 34.9569403,42.0106667 34.1986567,42.0106667 C33.4511194,42.0106667 32.8318657,41.406 32.8318657,40.6533333 C32.8318657,39.9113333 33.4403731,39.2966667 34.1986567,39.2966667 C34.9569403,39.2966667 35.5654478,39.9113333 35.5654478,40.6533333 Z" id="Fill-2"></path>
                    </g>
                </g>
                <g id="Page-1-Copy-4" transform="translate(56.000000, 7.000000)">
                    <path d="M17.6030189,25.7173913 L2.39698113,25.7173913 C1.08490566,25.7173913 0.019245283,24.6517681 0.019245283,23.3431014 L0.019245283,2.65689855 C0.0177358491,1.34823188 1.08490566,0.282608696 2.39698113,0.282608696 L17.6045283,0.282608696 C18.9166038,0.282608696 19.9822642,1.34823188 19.9822642,2.65689855 L19.9822642,23.3415942 C19.9822642,24.6517681 18.9150943,25.7173913 17.6030189,25.7173913 Z M2.39698113,1.53211594 C1.77622642,1.53211594 1.27056604,2.03704348 1.27056604,2.65689855 L1.27056604,23.3415942 C1.27056604,23.9614493 1.77622642,24.4663768 2.39698113,24.4663768 L17.6045283,24.4663768 C18.225283,24.4663768 18.7309434,23.9614493 18.7309434,23.3415942 L18.7309434,2.65689855 C18.7309434,2.03704348 18.225283,1.53211594 17.6045283,1.53211594 L2.39698113,1.53211594 Z" id="Fill-1"></path>
                    <polygon id="Fill-2" points="2.70943396 8.55475362 17.2909434 8.55475362 17.2909434 8.05434783 2.70943396 8.05434783"></polygon>
                    <polygon id="Fill-3" points="2.70943396 11.349942 17.2909434 11.349942 17.2909434 10.8495362 2.70943396 10.8495362"></polygon>
                    <polygon id="Fill-4" points="2.70943396 16.9403188 17.2909434 16.9403188 17.2909434 16.439913 2.70943396 16.439913"></polygon>
                    <polygon id="Fill-5" points="2.70943396 19.7355072 17.2909434 19.7355072 17.2909434 19.2351014 2.70943396 19.2351014"></polygon>
                    <polygon id="Fill-6" points="2.70943396 22.5306957 17.2909434 22.5306957 17.2909434 22.0302899 2.70943396 22.0302899"></polygon>
                    <polygon id="Fill-7" points="2.70943396 10.3623188 5.37886792 10.3623188 5.37886792 9.11281159 2.70943396 9.11281159"></polygon>
                    <polygon id="Fill-8" points="15.9566038 10.3268986 17.2920755 10.3268986 17.2920755 9.0773913 15.9566038 9.0773913"></polygon>
                    <polygon id="Fill-9" points="15.4981132 15.9172754 17.290566 15.9172754 17.290566 14.6677681 15.4981132 14.6677681"></polygon>
                    <polygon id="Fill-10" points="16.214717 18.7124638 17.2909434 18.7124638 17.2909434 17.4629565 16.214717 17.4629565"></polygon>
                    <polygon id="Fill-11" points="14.9396226 7.53171014 17.290566 7.53171014 17.290566 6.2822029 14.9396226 6.2822029"></polygon>
                    <polygon id="Fill-12" points="2.70943396 13.149971 6.49471698 13.149971 6.49471698 11.9004638 2.70943396 11.9004638"></polygon>
                    <polygon id="Fill-13" points="16.214717 21.5076522 17.2909434 21.5076522 17.2909434 20.2581449 16.214717 20.2581449"></polygon>
                    <polygon id="Fill-14" points="16.214717 13.122087 17.2909434 13.122087 17.2909434 11.8725797 16.214717 11.8725797"></polygon>
                    <polygon id="Fill-15" points="2.70943396 15.9364928 5.73698113 15.9364928 5.73698113 14.6869855 2.70943396 14.6869855"></polygon>
                    <polygon id="Fill-16" points="2.70943396 18.7241449 7.48981132 18.7241449 7.48981132 17.4746377 2.70943396 17.4746377"></polygon>
                    <polygon id="Fill-17" points="2.70943396 21.5106667 5.53811321 21.5106667 5.53811321 20.2611594 2.70943396 20.2611594"></polygon>
                    <polygon id="Fill-18" points="2.70943396 14.1451304 17.2909434 14.1451304 17.2909434 13.6447246 2.70943396 13.6447246"></polygon>
                    <path d="M5.75018868,3.60457971 C5.14150943,3.60457971 4.96150943,3.80202899 4.76415094,3.80202899 C4.56679245,3.80202899 4.38528302,3.60457971 3.77811321,3.60457971 C3.1690566,3.60457971 2.70943396,4.23913043 2.70943396,4.93962319 C2.70943396,5.64049275 3.39924528,7.28150725 4.1554717,7.28150725 C4.5490566,7.28150725 4.64754717,7.18278261 4.76415094,7.18278261 C4.87924528,7.18278261 4.97773585,7.28150725 5.37283019,7.28150725 C6.1290566,7.28150725 6.81886792,5.64049275 6.81886792,4.93962319 C6.81886792,4.23913043 6.35924528,3.60457971 5.75018868,3.60457971 Z" id="Fill-19"></path>
                    <path d="M4.76415094,3.61814493 C4.63584906,3.61814493 4.52679245,3.51942029 4.51509434,3.3897971 C4.49132075,3.12489855 4.59018868,2.57286957 5.12226415,2.37843478 C5.25207547,2.33171014 5.39509434,2.39765217 5.44377358,2.52727536 C5.4909434,2.65689855 5.4245283,2.79971014 5.29471698,2.84831884 C4.98528302,2.96136232 5.01320755,3.3442029 5.01471698,3.34721739 C5.02641509,3.48550725 4.92490566,3.60608696 4.78641509,3.61814493 L4.76415094,3.61814493 Z" id="Fill-20"></path>
                </g>
            </g>
        </g>
    </g>
</svg>