<?xml version="1.0" encoding="UTF-8"?>
<svg width="22px" height="22px" viewBox="0 0 22 22" version="1.1" xmlns="http://www.w3.org/2000/svg" xmlns:xlink="http://www.w3.org/1999/xlink">
    <!-- Generator: sketchtool 42 (36781) - http://www.bohemiancoding.com/sketch -->
    <title>88D43368-D8E7-457E-9CF4-DD2CDA1540DF</title>
    <desc>Created with sketchtool.</desc>
    <defs></defs>
    <g id="Page-1" stroke="none" stroke-width="1" fill="none" fill-rule="evenodd">
        <g id="Paquetes" transform="translate(-562.000000, -469.000000)" fill="#ED7161">
            <g id="Group-2" transform="translate(67.000000, 436.000000)">
                <g id="Group" transform="translate(493.000000, 29.000000)">
                    <path d="M12.8891659,13.6248533 C10.2353792,13.6248533 8.07673919,11.4662133 8.07673919,8.81242667 C8.07673919,6.15864 10.2353792,4 12.8891659,4 C15.5417792,4 17.7015925,6.15864 17.7015925,8.81242667 C17.7015925,11.4662133 15.5417792,13.6248533 12.8891659,13.6248533 Z M12.8891659,5.37514667 C10.9939392,5.37514667 9.45159253,6.9172 9.45159253,8.81242667 C9.45159253,10.7076533 10.9939392,12.25 12.8891659,12.25 C14.7843925,12.25 16.3267392,10.7076533 16.3267392,8.81242667 C16.3267392,6.9172 14.7843925,5.37514667 12.8891659,5.37514667 Z M20.5524992,26 L5.22700586,26 C4.15457919,26 3.25052586,25.1625333 3.16897919,24.0933333 L2.00591253,8.97288 C1.96249919,8.40117333 2.15961919,7.83269333 2.54916586,7.41117333 C2.93871253,6.99053333 3.49105919,6.75 4.06393919,6.75 L6.70159253,6.75 C7.08087253,6.75 7.38916586,7.05829333 7.38916586,7.43757333 C7.38916586,7.81685333 7.08087253,8.12485333 6.70159253,8.12485333 L4.06393919,8.12485333 C3.86916586,8.12485333 3.69052586,8.20288 3.55764586,8.34602667 C3.42564586,8.48829333 3.36052586,8.67397333 3.37636586,8.86757333 L4.53943253,23.9880267 C4.56700586,24.3453067 4.86825919,24.6248533 5.22700586,24.6248533 L20.5524992,24.6248533 C20.9112459,24.6248533 21.2124992,24.3453067 21.2400725,23.9880267 L22.4031392,8.86757333 C22.4178059,8.67397333 22.3538592,8.48829333 22.2218592,8.34602667 C22.0901525,8.20288 21.9103392,8.12485333 21.7155659,8.12485333 L19.0779125,8.12485333 C18.6974592,8.12485333 18.3903392,7.81685333 18.3903392,7.43757333 C18.3903392,7.05829333 18.6974592,6.75 19.0779125,6.75 L21.7155659,6.75 C22.2884459,6.75 22.8419659,6.99170667 23.2303392,7.41234667 C23.6198859,7.83269333 23.8170059,8.40117333 23.7732992,8.97405333 L22.6105259,24.0945067 C22.5266325,25.1625333 21.6225792,26 20.5524992,26 Z M12.8879925,10.1875733 C12.7574592,10.1875733 12.6245792,10.1509067 12.5075392,10.0717067 C12.1924992,9.8608 12.1065525,9.43458667 12.3174592,9.11837333 L13.6923125,7.05594667 C13.9032192,6.74090667 14.3282592,6.65378667 14.6456459,6.86586667 C14.9618592,7.07648 15.0466325,7.50269333 14.8360192,7.8192 L13.4608725,9.88162667 C13.3279925,10.07992 13.1103392,10.1875733 12.8879925,10.1875733 Z" id="Page-1"></path>
                </g>
            </g>
        </g>
    </g>
</svg>