<?xml version="1.0" encoding="UTF-8"?>
<svg width="22px" height="22px" viewBox="0 0 22 22" version="1.1" xmlns="http://www.w3.org/2000/svg" xmlns:xlink="http://www.w3.org/1999/xlink">
    <!-- Generator: sketchtool 42 (36781) - http://www.bohemiancoding.com/sketch -->
    <title>87B65721-3A43-4C8D-A30B-AE294ADCC377</title>
    <desc>Created with sketchtool.</desc>
    <defs></defs>
    <g id="Page-1" stroke="none" stroke-width="1" fill="none" fill-rule="evenodd">
        <g id="Paquetes" transform="translate(-118.000000, -640.000000)" fill="#E77D16">
            <g id="Group-2" transform="translate(67.000000, 436.000000)">
                <path d="M62.1837389,204 C56.2196855,204 51.3670722,208.852613 51.3670722,214.816667 C51.3670722,216.703973 51.8610455,218.55784 52.7958989,220.18848 L51.0185922,225.517467 C50.9763522,225.644773 51.0071522,225.785867 51.1001389,225.884133 C51.1699522,225.95864 51.2673389,226 51.3670722,226 C51.3978722,226 51.4289655,225.995307 51.4597655,225.987387 L57.2783255,224.45648 C58.7898722,225.22648 60.4821122,225.633333 62.1837389,225.633333 C68.1477922,225.633333 73.0004055,220.78072 73.0004055,214.816667 C73.0004055,208.852613 68.1477922,204 62.1837389,204 Z M68.9339255,219.727653 L68.2888855,220.372693 C67.4751789,221.187573 66.5664322,221.6 65.5902189,221.6 C65.5890455,221.6 65.5902189,221.6 65.5890455,221.6 C64.2737389,221.6 62.8540055,220.84848 61.3723789,219.36568 L57.6347255,215.628027 C56.4649122,214.459093 55.7465389,213.3236 55.4989655,212.25352 C55.1985922,210.95288 55.5778722,209.76136 56.6277122,208.71152 L57.2727522,208.06648 C57.6875255,207.65288 58.3577922,207.5508 58.8778722,207.825947 C59.8532055,208.341627 60.8649122,210.03504 60.9772589,210.225413 C61.1799522,210.58064 61.2418455,210.947307 61.1535522,211.261173 C61.0872589,211.501707 60.9370722,211.697653 60.7182455,211.830533 C60.4225655,212.078107 60.0743789,212.3864 60.0136589,212.465307 C59.6411255,213.015307 59.6836589,213.43712 60.1635522,213.917307 L63.0830989,216.836853 C63.5668055,217.32144 63.9815789,217.360453 64.5394989,216.98352 C64.6140055,216.924853 64.9222989,216.57784 65.1698722,216.28216 C65.3555522,215.976213 65.6591522,215.80784 66.0278722,215.80784 C66.2686989,215.80784 66.5265389,215.881173 66.7705922,216.0208 C66.9653655,216.135493 68.6587789,217.1472 69.1744589,218.122533 C69.4575255,218.6564 69.3601389,219.30144 68.9339255,219.727653 Z" id="Page-1"></path>
            </g>
        </g>
    </g>
</svg>