<?xml version="1.0" encoding="UTF-8"?>
<svg width="22px" height="22px" viewBox="0 0 22 22" version="1.1" xmlns="http://www.w3.org/2000/svg" xmlns:xlink="http://www.w3.org/1999/xlink">
    <!-- Generator: sketchtool 42 (36781) - http://www.bohemiancoding.com/sketch -->
    <title>5587E92D-0EAF-450C-A567-F1EC75A8AF27</title>
    <desc>Created with sketchtool.</desc>
    <defs></defs>
    <g id="Page-1" stroke="none" stroke-width="1" fill="none" fill-rule="evenodd">
        <g id="Paquetes" transform="translate(-562.000000, -651.000000)" fill="#ED7161">
            <g id="Group-2" transform="translate(67.000000, 436.000000)">
                <g id="Group" transform="translate(493.000000, 29.000000)">
                    <path d="M13.1837389,186 C7.21968553,186 2.3670722,190.852613 2.3670722,196.816667 C2.3670722,198.703973 2.86104553,200.55784 3.79589887,202.18848 L2.0185922,207.517467 C1.9763522,207.644773 2.0071522,207.785867 2.10013887,207.884133 C2.1699522,207.95864 2.26733887,208 2.3670722,208 C2.3978722,208 2.42896553,207.995307 2.45976553,207.987387 L8.27832553,206.45648 C9.7898722,207.22648 11.4821122,207.633333 13.1837389,207.633333 C19.1477922,207.633333 24.0004055,202.78072 24.0004055,196.816667 C24.0004055,190.852613 19.1477922,186 13.1837389,186 Z M19.9339255,201.727653 L19.2888855,202.372693 C18.4751789,203.187573 17.5664322,203.6 16.5902189,203.6 C16.5890455,203.6 16.5902189,203.6 16.5890455,203.6 C15.2737389,203.6 13.8540055,202.84848 12.3723789,201.36568 L8.63472553,197.628027 C7.4649122,196.459093 6.74653887,195.3236 6.49896553,194.25352 C6.1985922,192.95288 6.5778722,191.76136 7.6277122,190.71152 L8.2727522,190.06648 C8.68752553,189.65288 9.3577922,189.5508 9.8778722,189.825947 C10.8532055,190.341627 11.8649122,192.03504 11.9772589,192.225413 C12.1799522,192.58064 12.2418455,192.947307 12.1535522,193.261173 C12.0872589,193.501707 11.9370722,193.697653 11.7182455,193.830533 C11.4225655,194.078107 11.0743789,194.3864 11.0136589,194.465307 C10.6411255,195.015307 10.6836589,195.43712 11.1635522,195.917307 L14.0830989,198.836853 C14.5668055,199.32144 14.9815789,199.360453 15.5394989,198.98352 C15.6140055,198.924853 15.9222989,198.57784 16.1698722,198.28216 C16.3555522,197.976213 16.6591522,197.80784 17.0278722,197.80784 C17.2686989,197.80784 17.5265389,197.881173 17.7705922,198.0208 C17.9653655,198.135493 19.6587789,199.1472 20.1744589,200.122533 C20.4575255,200.6564 20.3601389,201.30144 19.9339255,201.727653 Z" id="Page-1-Copy-3"></path>
                </g>
            </g>
        </g>
    </g>
</svg>