<?xml version="1.0" encoding="UTF-8"?>
<svg width="45px" height="50px" viewBox="0 0 45 50" version="1.1" xmlns="http://www.w3.org/2000/svg" xmlns:xlink="http://www.w3.org/1999/xlink">
    <!-- Generator: sketchtool 42 (36781) - http://www.bohemiancoding.com/sketch -->
    <title>92600BD5-CDD5-4094-8A82-A8742B25C7CC</title>
    <desc>Created with sketchtool.</desc>
    <defs></defs>
    <g id="Page-1" stroke="none" stroke-width="1" fill="none" fill-rule="evenodd">
        <g id="Paquetes" transform="translate(-577.000000, -320.000000)" fill="#FFFFFF">
            <g id="Page-1" transform="translate(577.000000, 320.000000)">
                <path d="M12.0115529,18.1379254 L12.0115529,18.2052587 C12.4158812,24.7679254 17.0099111,29.9032587 22.4589409,29.9032587 C28.136329,29.9032587 32.9378962,24.1325921 32.9378962,17.2965921 C32.9378962,12.7259254 30.8228962,8.48925873 27.4176723,6.23125873 C26.9058812,5.88992539 26.2161051,5.92925873 25.7439409,6.33059206 C23.0466275,8.61659206 17.7943887,12.7759254 12.8249111,15.0305921 C12.3634932,15.2365921 12.0592395,15.6765921 12.016926,16.1819254 C12.0014783,16.5539254 11.990732,17.7259254 12.0115529,18.1379254 Z M14.7746872,17.1712587 C19.3002096,14.9632587 23.8834932,11.4785921 26.6882693,9.15325873 C28.8240902,11.0072587 30.1512544,14.0852587 30.1512544,17.3065921 C30.1512544,22.6479254 26.6305081,27.1612587 22.4481947,27.1612587 C18.5237917,27.1612587 15.0789409,23.0699254 14.7746872,18.1092587 L14.7746872,18.0099254 L14.7746872,17.1712587 Z" id="Fill-1"></path>
                <path d="M37.575,29.3566667 C38.6375373,26.6226667 39.1990299,23.6246667 39.1990299,20.578 C39.2070896,9.22933333 31.6511194,0 22.3636567,0 C13.076194,0 5.52022388,9.22933333 5.52022388,20.5653333 C5.52022388,23.612 6.08171642,26.6093333 7.15231343,29.344 C3.18022388,29.5986667 0,33.888 0,39.1406667 L0,48.232 C0,48.992 0.619253731,49.6093333 1.38828358,49.6093333 L43.3289552,49.6093333 C44.0946269,49.6093333 44.7165672,48.9946667 44.7165672,48.232 L44.7165672,39.1406667 C44.7273134,33.896 41.5470896,29.6093333 37.575,29.3566667 Z M22.3636567,2.75266667 C30.1164179,2.75266667 36.423806,10.742 36.423806,20.5653333 C36.423806,23.6406667 35.7830597,26.6486667 34.5841791,29.3253333 L28.0907463,29.3253333 C27.5977612,29.3253333 27.1464179,29.5806667 26.8999254,30 L22.3636567,37.5 L17.8273881,29.9893333 C17.5808955,29.57 17.1295522,29.3153333 16.6365672,29.3153333 L10.1431343,29.3153333 C8.93350746,26.638 8.29343284,23.6326667 8.29343284,20.5546667 C8.30350746,10.742 14.6108955,2.75266667 22.3636567,2.75266667 Z M41.9406716,46.8566667 L2.78664179,46.8566667 L2.78664179,39.1433333 C2.78664179,35.3153333 4.96141791,32.0833333 7.52977612,32.0833333 L10.4574627,32.0833333 C9.53395522,33.294 9.2088806,34.5053333 9.09873134,35.4033333 C6.77686567,36.0393333 5.11320896,38.2266667 5.29186567,40.7366667 L5.49940299,43.7346667 C5.55716418,44.6226667 6.46455224,45.258 7.3591791,44.9346667 C7.96029851,44.7213333 8.30350746,44.0966667 8.26455224,43.4606667 L8.05701493,40.5493333 C7.95761194,39.164 9.06985075,37.982 10.4762687,37.982 C11.8826866,37.982 12.9949254,39.164 12.8948507,40.5493333 L12.6879851,43.5466667 C12.6382836,44.3073333 13.2098507,44.9633333 13.976194,45.0206667 C14.7237313,45.0986667 15.4034328,44.4633333 15.461194,43.742 L15.6680597,40.7446667 C15.8467164,38.2553333 14.2018657,36.078 11.9008209,35.422 C12.0794776,34.5413333 12.708806,33.206 14.6659701,32.0913333 L15.856791,32.0913333 L21.1802239,40.8986667 C21.7208955,41.7866667 23.0198507,41.7866667 23.5625373,40.8986667 L28.8859701,32.0913333 L30.5966418,32.0913333 C31.6981343,33.1273333 32.3388806,35.3333333 32.6431343,36.8673333 C31.1366418,37.482 30.0741045,38.956 30.0741045,40.6666667 C30.0741045,42.932 31.9345522,44.7786667 34.216791,44.7786667 C36.4997015,44.7786667 38.3594776,42.932 38.3594776,40.6666667 C38.3594776,38.82 37.1290299,37.258 35.4472388,36.7393333 C35.2511194,35.5886667 34.8179104,33.732 33.9521642,32.0913333 L37.2183582,32.0913333 C39.7867164,32.0913333 41.9621642,35.3226667 41.9621642,39.1513333 L41.9621642,46.8566667 L41.9406716,46.8566667 Z M35.5654478,40.6533333 C35.5654478,41.396 34.9569403,42.0106667 34.1986567,42.0106667 C33.4511194,42.0106667 32.8318657,41.406 32.8318657,40.6533333 C32.8318657,39.9113333 33.4403731,39.2966667 34.1986567,39.2966667 C34.9569403,39.2966667 35.5654478,39.9113333 35.5654478,40.6533333 Z" id="Fill-2"></path>
            </g>
        </g>
    </g>
</svg>